<?xml version="1.0" encoding="utf-8"?>
<!-- Generator: Adobe Illustrator 24.0.0, SVG Export Plug-In . SVG Version: 6.00 Build 0)  -->
<svg version="1.1" id="Layer_1" xmlns="http://www.w3.org/2000/svg" xmlns:xlink="http://www.w3.org/1999/xlink" x="0px" y="0px"
	 viewBox="0 0 256 256" enable-background="new 0 0 256 256" xml:space="preserve">
<g>
</g>
<g>
	<path fill="#FC5D3D" d="M161.262,112.946h-35.059V97.622c0-9.681,7.848-17.529,17.529-17.529h0c9.681,0,17.529,7.848,17.529,17.529
		V112.946z"/>
	<path fill="#72C2E9" d="M62.731,160.33l-32.12-21.56V78c0-2.47,2.01-4.48,4.48-4.48h15.85c2.32,0,4.26,1.77,4.46,4.08l3.13,35.34
		v0.01L62.731,160.33z"/>
	<path fill="#EFEFEF" d="M223.811,169.24h-43.16l11.48-11.12h-41.87l-7.07,11.12c-27.4,0-51.24,0-51.24,0
		c-10.41,0-20.58-3.1-29.22-8.9v-0.01l-4.2-47.38v-0.01h164.69c15.35,0,28.33,12.06,28.72,27.41
		C252.351,156.25,239.561,169.24,223.811,169.24z"/>
	<circle fill="#FEB69F" cx="103.28" cy="54.547" r="15.438"/>
	<path fill="#FC5D3D" d="M126.203,112.946H80.357V92.907c0-12.66,10.263-22.923,22.923-22.923h0
		c12.66,0,22.923,10.263,22.923,22.923V112.946z"/>
	<path fill="#FFCBC3" d="M118.149,107.392c-1.381,0-2.5-1.119-2.5-2.5v-1.345c0-1.381,1.119-2.5,2.5-2.5s2.5,1.119,2.5,2.5v1.345
		C120.649,106.273,119.53,107.392,118.149,107.392z M118.149,96.047c-1.381,0-2.5-1.119-2.5-2.5c0-8.095-5.979-13.009-12.369-13.009
		c-1.381,0-2.5-1.119-2.5-2.5s1.119-2.5,2.5-2.5c8.879,0,17.369,6.864,17.369,18.009C120.649,94.928,119.53,96.047,118.149,96.047z"
		/>
	<circle fill="#FEB69F" cx="143.732" cy="68.287" r="11.806"/>
	<path fill="#FFCBC3" d="M153.208,107.392c-1.381,0-2.5-1.119-2.5-2.5v-2.156c0-1.381,1.119-2.5,2.5-2.5s2.5,1.119,2.5,2.5v2.156
		C155.708,106.273,154.588,107.392,153.208,107.392z M151.977,95.452c-0.87,0-1.715-0.455-2.176-1.265
		c-1.242-2.184-3.567-3.541-6.068-3.541c-1.381,0-2.5-1.119-2.5-2.5s1.119-2.5,2.5-2.5c4.295,0,8.286,2.326,10.415,6.069
		c0.683,1.2,0.263,2.727-0.938,3.409C152.82,95.346,152.395,95.452,151.977,95.452z"/>
	<circle fill="#FEB69F" cx="184.184" cy="54.547" r="15.438"/>
	<path fill="#FC5D3D" d="M207.107,112.946h-45.845V92.907c0-12.66,10.263-22.923,22.923-22.923h0
		c12.66,0,22.923,10.263,22.923,22.923V112.946z"/>
	<path fill="#FFCBC3" d="M199.053,107.392c-1.381,0-2.5-1.119-2.5-2.5v-1.344c0-1.381,1.119-2.5,2.5-2.5s2.5,1.119,2.5,2.5v1.344
		C201.553,106.273,200.434,107.392,199.053,107.392z M199.053,96.048c-1.381,0-2.5-1.119-2.5-2.5v-0.641
		c0-6.82-5.548-12.369-12.369-12.369c-1.381,0-2.5-1.119-2.5-2.5s1.119-2.5,2.5-2.5c9.577,0,17.369,7.792,17.369,17.369v0.641
		C201.553,94.928,200.434,96.048,199.053,96.048z"/>
	<path fill="#72C2E9" d="M192.131,158.12l-11.48,11.12l-49.21,47.65h-18.54l13.84-21.77h7.45c2.7,0,4.85-2.2,4.85-4.85
		c0-2.68-2.17-4.85-4.85-4.85h-1.29l10.29-16.18l7.07-11.12H192.131z"/>
	<path fill="#EFEFEF" d="M139.044,190.269c0,2.653-2.158,4.85-4.85,4.85h-17.969v-9.7h17.969
		C136.87,185.419,139.044,187.593,139.044,190.269z"/>
	<path d="M110.661,52.05c-1.37,0-2.5,1.12-2.5,2.5c0,2.68-2.19,4.87-4.88,4.88c-2.69-0.01-4.88-2.2-4.89-4.88
		c0-1.38-1.12-2.5-2.49-2.5c-1.38,0-2.5,1.12-2.5,2.5c0,5.44,4.43,9.87,9.88,9.88c5.44-0.01,9.88-4.44,9.88-9.88
		C113.161,53.17,112.041,52.05,110.661,52.05z"/>
	<path d="M147.481,65.79c-1.38,0-2.5,1.12-2.5,2.5c0,0.68-0.56,1.25-1.25,1.25s-1.25-0.57-1.25-1.25c0-1.38-1.12-2.5-2.5-2.5
		s-2.5,1.12-2.5,2.5c0,3.44,2.81,6.24,6.25,6.25c3.44-0.01,6.25-2.81,6.25-6.25C149.981,66.91,148.861,65.79,147.481,65.79z"/>
	<path d="M191.571,52.05c-1.38,0-2.5,1.12-2.5,2.5c-0.01,2.69-2.2,4.88-4.89,4.88c-2.68,0-4.88-2.19-4.88-4.88
		c0-1.38-1.12-2.5-2.5-2.5c-1.38,0-2.5,1.12-2.5,2.5c0,5.44,4.44,9.88,9.88,9.88c5.45,0,9.88-4.44,9.89-9.88
		C194.071,53.17,192.951,52.05,191.571,52.05z"/>
	<path d="M87.441,124.62c-1.38,0-2.5,1.13-2.5,2.5v2.82c0,1.38,1.12,2.5,2.5,2.5s2.5-1.12,2.5-2.5v-2.82
		C89.941,125.75,88.821,124.62,87.441,124.62z"/>
	<path d="M108.381,124.62c-1.38,0-2.5,1.13-2.5,2.51v2.81c0,1.38,1.12,2.5,2.5,2.5c1.38,0,2.5-1.12,2.5-2.5v-2.81
		C110.881,125.75,109.761,124.62,108.381,124.62z"/>
	<path d="M129.321,124.63c-1.38,0-2.5,1.12-2.5,2.5v2.81c0,1.38,1.12,2.5,2.5,2.5c1.38,0,2.5-1.12,2.5-2.5v-2.81
		C131.821,125.75,130.701,124.63,129.321,124.63z"/>
	<path d="M150.251,124.62c-1.38,0-2.5,1.13-2.5,2.5v2.82c0,1.38,1.12,2.5,2.5,2.5s2.5-1.12,2.5-2.5v-2.82
		C152.751,125.75,151.631,124.62,150.251,124.62z"/>
	<path d="M173.691,129.94v-2.82c0-1.37-1.12-2.5-2.5-2.5s-2.5,1.13-2.5,2.5v2.82c0,1.38,1.12,2.5,2.5,2.5
		S173.691,131.32,173.691,129.94z"/>
	<path d="M192.131,124.63c-1.38,0-2.5,1.12-2.5,2.49v2.82c0,1.38,1.12,2.5,2.5,2.5c1.38,0,2.5-1.12,2.5-2.5v-2.82
		C194.631,125.75,193.511,124.63,192.131,124.63z"/>
	<path d="M213.071,124.63c-1.38,0-2.51,1.12-2.51,2.49v2.82c0,1.38,1.13,2.5,2.51,2.5c1.37,0,2.49-1.12,2.49-2.5v-2.82
		C215.561,125.75,214.441,124.63,213.071,124.63z"/>
	<path d="M60.561,135.9c-1.448,0.132-2.387,1.426-2.27,2.71c0.12,1.3,1.19,2.28,2.49,2.28c1.474,0,2.622-1.247,2.49-2.72
		C63.151,136.8,61.951,135.78,60.561,135.9z"/>
	<path d="M19.651,115.81c1.38,0,2.5-1.13,2.5-2.5c0-1.38-1.12-2.5-2.5-2.5H4.031c-1.38,0-2.5,1.12-2.5,2.5c0,1.37,1.12,2.5,2.5,2.5
		H19.651z"/>
	<path d="M223.221,110.44h-13.61V92.91c-0.015-10.731-6.569-19.638-15.519-23.427c4.834-3.215,8.029-8.705,8.029-14.933
		c0-9.89-8.05-17.94-17.94-17.94c-9.89,0-17.93,8.05-17.93,17.94c0,6.228,3.192,11.718,8.023,14.933
		c-6.83,2.894-12.295,8.795-14.479,16.227c-1.92-2.582-4.44-4.682-7.36-6.1c3.397-2.618,5.599-6.713,5.605-11.32
		c-0.01-7.89-6.42-14.31-14.31-14.31s-14.3,6.42-14.3,14.31c0,4.606,2.2,8.702,5.596,11.32c-2.918,1.417-5.438,3.517-7.358,6.098
		c-2.166-7.385-7.589-13.305-14.479-16.224c4.835-3.215,8.031-8.705,8.031-14.934c0-9.89-8.05-17.94-17.94-17.94
		c-9.89,0-17.94,8.05-17.94,17.94c0,6.228,3.196,11.718,8.029,14.933c-8.958,3.793-15.509,12.708-15.509,23.427v17.53H60.818
		l-2.927-33.06c-0.32-3.62-3.31-6.36-6.95-6.36h-15.85c-3.85,0.01-6.98,3.13-6.98,6.98v20.83H7.781c-1.38,0-2.5,1.12-2.5,2.5
		c0,1.38,1.12,2.5,2.5,2.5h20.33v18.23H7.281c-1.38,0-2.5,1.12-2.5,2.5c0,1.38,1.12,2.5,2.5,2.5h20.83v11.71
		c0,0.83,0.42,1.61,1.11,2.07c32.325,21.714,41.702,30.9,62.73,30.9h46.687l-7.109,11.18h-15.308c-1.352,0-2.5,1.105-2.5,2.5v9.7
		c0,1.352,1.108,2.5,2.5,2.5h5.969l-11.399,17.93c-1.061,1.668,0.157,3.84,2.11,3.84h18.54c0.65,0,1.27-0.25,1.74-0.7l48.484-46.95
		h42.146c17.792,0,31.356-15.162,30.63-31.45C254.008,123.648,240.035,110.44,223.221,110.44z M171.241,54.55
		c0.02-7.12,5.82-12.93,12.94-12.94c7.12,0.01,12.93,5.82,12.94,12.94c-0.01,7.12-5.82,12.92-12.94,12.93
		C177.061,67.47,171.261,61.67,171.241,54.55z M134.431,68.29c0.01-5.12,4.18-9.3,9.3-9.31c5.12,0.01,9.3,4.19,9.31,9.31
		c-0.01,5.12-4.19,9.29-9.31,9.3C138.611,77.58,134.441,73.41,134.431,68.29z M143.731,82.59c8.27,0.02,15.02,6.76,15.03,15.03
		v12.82h-30.06V97.62C128.721,89.35,135.461,82.61,143.731,82.59z M90.341,54.55c0.01-7.12,5.82-12.93,12.94-12.94
		c7.12,0.01,12.92,5.82,12.94,12.94c-0.02,7.12-5.82,12.92-12.94,12.93C96.161,67.47,90.351,61.67,90.341,54.55z M82.861,92.91
		c0.02-11.24,9.18-20.41,20.42-20.43c11.24,0.02,20.4,9.19,20.42,20.43v17.53h-40.84V92.91z M118.721,187.92h15.47
		c1.3,0,2.35,1.06,2.35,2.35s-1.05,2.35-2.35,2.35h-15.47V187.92z M223.811,166.74h-36.983l7.043-6.82
		c1.62-1.598,0.484-4.3-1.74-4.3h-9.22c-1.38,0-2.5,1.12-2.5,2.5c0,1.38,1.12,2.5,2.5,2.5h3.05
		c-6.779,6.564-47.053,45.561-55.53,53.77h-12.98l10.663-16.77h6.077c4.05-0.01,7.35-3.31,7.35-7.35
		c0-3.027-1.843-5.633-4.465-6.758c7.984-12.558,10.934-17.198,14.555-22.893h11.28c1.38,0,2.5-1.12,2.5-2.5
		c0-1.38-1.12-2.5-2.5-2.5h-12.65c-0.85,0-1.66,0.44-2.11,1.16l-6.333,9.96H91.951c-9.55,0-18.806-2.717-26.837-7.837l-0.953-10.772
		c-0.13-1.37-1.34-2.4-2.72-2.27c-1.37,0.12-2.39,1.34-2.27,2.71l0.6,6.77l-26.66-17.91v-10.37h6.92c1.38,0,2.5-1.12,2.5-2.5
		c0-1.38-1.12-2.5-2.5-2.5h-6.92v-18.23h6.17c1.38,0,2.5-1.12,2.5-2.5c0-1.38-1.12-2.5-2.5-2.5h-6.17V78
		c0.01-1.09,0.89-1.98,1.98-1.98h15.85c1.04,0,1.88,0.78,1.97,1.8l4.5,50.83c0.12,1.35,1.35,2.38,2.71,2.27
		c1.419-0.127,2.393-1.362,2.27-2.71l-1.131-12.77c86.611,0,75.194,0,113.26,0c1.38,0,2.5-1.12,2.5-2.5s-1.12-2.5-2.5-2.5h-10.76
		V92.91c0.02-11.24,9.18-20.41,20.42-20.43c11.25,0.02,20.41,9.19,20.43,20.43v17.53h-10.09c-1.38,0-2.5,1.12-2.5,2.5
		s1.12,2.5,2.5,2.5c2.782,0-4.654,0,28.7,0c14.13,0,25.89,11.2,26.22,24.97C250.094,153.787,238.837,166.719,223.811,166.74z"/>
	<circle cx="184.521" cy="112.94" r="2.5"/>
	<circle cx="172.911" cy="158.12" r="2.5"/>
</g>
</svg>
